<?xml version="1.0" encoding="UTF-8" standalone="no"?>
<!DOCTYPE svg PUBLIC "-//W3C//DTD SVG 1.1//EN" "http://www.w3.org/Graphics/SVG/1.1/DTD/svg11.dtd">
<svg width="1200" height="3400" viewBox="0 0 1200 3400" xmlns="http://www.w3.org/2000/svg">
  <defs>
    <!-- Arrow Marker -->
    <marker id="arrow" viewBox="0 0 10 10" refX="10" refY="5"
      markerWidth="6" markerHeight="6" orient="auto">
      <path d="M 0 0 L 10 5 L 0 10 z" fill="#333"/>
    </marker>

    <!-- Define styles for UML elements -->
    <style type="text/css"><![CDATA[
      /* UML Activity styles */
      .activity {
        fill: #fff;
        stroke: #333;
        stroke-width: 2;
        rx: 15;
        ry: 15;
      }

      .swimlane {
        fill: #f8f8f8;
        stroke: #666;
        stroke-width: 1.5;
        stroke-dasharray: none;
      }

      .swimlane-header {
        fill: #f0f0f0;
        stroke: #666;
        stroke-width: 1.5;
      }

      .decision {
        fill: #fff;
        stroke: #333;
        stroke-width: 2;
      }

      .start-end {
        fill: #333;
        stroke: #333;
        stroke-width: 2;
      }

      .end-node {
        fill: #fff;
        stroke: #333;
        stroke-width: 3;
      }

      .control-flow {
        stroke: #333;
        stroke-width: 1.5;
        fill: none;
        marker-end: url(#arrow);
      }

      .agent-p { fill: #e1f5fe; }
      .agent-a { fill: #e8f5e9; }
      .agent-t { fill: #fff3e0; }
      .agent-d { fill: #f3e5f5; }
      .agent-q { fill: #e0f2f1; }
      .agent-i { fill: #fce4ec; }

      /* Text styles */
      text {
        font-family: Arial, sans-serif;
        font-size: 12px;
        fill: #333;
      }

      .title {
        font-size: 20px;
        font-weight: bold;
        text-anchor: middle;
      }

      .swimlane-title {
        font-size: 16px;
        font-weight: bold;
        text-anchor: middle;
      }

      .activity-label {
        font-size: 12px;
        text-anchor: middle;
      }

      .phase-label {
        font-size: 14px;
        font-weight: bold;
      }

      .note {
        fill: #fffacd;
        stroke: #333;
        stroke-width: 1;
        rx: 5;
        ry: 5;
      }
    ]]></style>
  </defs>

  <!-- Title -->
  <text x="600" y="30" class="title">roo code 開発オーケストレーションフロー</text>

  <!-- Swimlanes -->
  <g id="swimlanes">
    <!-- User Swimlane -->
    <rect x="50" y="50" width="150" height="3300" class="swimlane"/>
    <rect x="50" y="50" width="150" height="50" class="swimlane-header"/>
    <text x="125" y="80" class="swimlane-title">ユーザー</text>

    <!-- AI-P Swimlane -->
    <rect x="200" y="50" width="150" height="3300" class="swimlane"/>
    <rect x="200" y="50" width="150" height="50" class="swimlane-header agent-p"/>
    <text x="275" y="80" class="swimlane-title">AI-P</text>

    <!-- AI-A Swimlane -->
    <rect x="350" y="50" width="150" height="3300" class="swimlane"/>
    <rect x="350" y="50" width="150" height="50" class="swimlane-header agent-a"/>
    <text x="425" y="80" class="swimlane-title">AI-A</text>

    <!-- AI-T Swimlane -->
    <rect x="500" y="50" width="150" height="3300" class="swimlane"/>
    <rect x="500" y="50" width="150" height="50" class="swimlane-header agent-t"/>
    <text x="575" y="80" class="swimlane-title">AI-T</text>

    <!-- AI-D Swimlane -->
    <rect x="650" y="50" width="150" height="3300" class="swimlane"/>
    <rect x="650" y="50" width="150" height="50" class="swimlane-header agent-d"/>
    <text x="725" y="80" class="swimlane-title">AI-D</text>

    <!-- AI-Q Swimlane -->
    <rect x="800" y="50" width="150" height="3300" class="swimlane"/>
    <rect x="800" y="50" width="150" height="50" class="swimlane-header agent-q"/>
    <text x="875" y="80" class="swimlane-title">AI-Q</text>

    <!-- AI-I Swimlane -->
    <rect x="950" y="50" width="150" height="3300" class="swimlane"/>
    <rect x="950" y="50" width="150" height="50" class="swimlane-header agent-i"/>
    <text x="1025" y="80" class="swimlane-title">AI-I</text>
  </g>

  <!-- Phase Labels -->
  <rect x="50" y="120" width="1050" height="30" fill="#eee" stroke="none"/>
  <text x="60" y="140" class="phase-label">0. 準備フェーズ</text>

  <!-- Start node -->
  <circle cx="125" cy="180" r="15" class="start-end"/>

  <!-- 0. 準備フェーズ Activities -->
  <rect x="75" y="220" width="100" height="60" class="activity"/>
  <text x="125" y="250" class="activity-label">仕様書作成</text>
  <text x="125" y="265" class="activity-label">(Claude desktop)</text>

  <rect x="75" y="320" width="100" height="60" class="activity"/>
  <text x="125" y="350" class="activity-label">開発プロジェクト</text>
  <text x="125" y="365" class="activity-label">初期作成</text>

  <rect x="75" y="420" width="100" height="60" class="activity"/>
  <text x="125" y="450" class="activity-label">単一イシュー</text>
  <text x="125" y="465" class="activity-label">作成</text>

  <!-- Connections 0. Phase -->
  <path d="M 125,195 L 125,220" class="control-flow"/>
  <path d="M 125,280 L 125,320" class="control-flow"/>
  <path d="M 125,380 L 125,420" class="control-flow"/>

  <!-- Phase 1 Label -->
  <rect x="50" y="500" width="1050" height="30" fill="#eee" stroke="none"/>
  <text x="60" y="520" class="phase-label">1. タスク受付フェーズ</text>

  <!-- 1. タスク受付フェーズ Activities -->
  <rect x="75" y="550" width="100" height="60" class="activity"/>
  <text x="125" y="580" class="activity-label">イシューURL</text>
  <text x="125" y="595" class="activity-label">をAI-Pに通知</text>

  <rect x="225" y="550" width="100" height="60" class="activity"/>
  <text x="275" y="580" class="activity-label">イシュー内容</text>
  <text x="275" y="595" class="activity-label">読取・把握</text>

  <rect x="225" y="650" width="100" height="60" class="activity"/>
  <text x="275" y="680" class="activity-label">タスク受付完了</text>
  <text x="275" y="695" class="activity-label">コメント追加</text>

  <!-- Connections Phase 1 -->
  <path d="M 125,480 L 125,550" class="control-flow"/>
  <path d="M 175,580 L 225,580" class="control-flow"/>
  <path d="M 275,610 L 275,650" class="control-flow"/>

  <!-- Phase 2 Label -->
  <rect x="50" y="730" width="1050" height="30" fill="#eee" stroke="none"/>
  <text x="60" y="750" class="phase-label">2. 分析・計画および環境準備フェーズ</text>

  <!-- 2. 分析フェーズ Activities -->
  <rect x="225" y="780" width="100" height="60" class="activity"/>
  <text x="275" y="810" class="activity-label">AI-Aにモード</text>
  <text x="275" y="825" class="activity-label">切り替え指示</text>

  <rect x="375" y="780" width="100" height="60" class="activity"/>
  <text x="425" y="810" class="activity-label">イシュー読取</text>
  <text x="425" y="825" class="activity-label">タスク分析</text>

  <rect x="375" y="880" width="100" height="60" class="activity"/>
  <text x="425" y="910" class="activity-label">技術スタック</text>
  <text x="425" y="925" class="activity-label">選定</text>

  <rect x="375" y="980" width="100" height="60" class="activity"/>
  <text x="425" y="1010" class="activity-label">プロジェクト構造</text>
  <text x="425" y="1025" class="activity-label">設計・作成</text>

  <rect x="375" y="1080" width="100" height="60" class="activity"/>
  <text x="425" y="1110" class="activity-label">環境準備完了</text>
  <text x="425" y="1125" class="activity-label">コメント追加</text>

  <!-- Connections Phase 2 -->
  <path d="M 275,710 L 275,780" class="control-flow"/>
  <path d="M 325,810 L 375,810" class="control-flow"/>
  <path d="M 425,840 L 425,880" class="control-flow"/>
  <path d="M 425,940 L 425,980" class="control-flow"/>
  <path d="M 425,1040 L 425,1080" class="control-flow"/>

  <!-- Phase 3 Label (イシュー更新) -->
  <rect x="50" y="1160" width="1050" height="30" fill="#eee" stroke="none"/>
  <text x="60" y="1180" class="phase-label">3. イシュー更新フェーズ</text>

  <!-- 3. イシュー更新フェーズ Activities -->
  <rect x="225" y="1210" width="100" height="60" class="activity"/>
  <text x="275" y="1240" class="activity-label">環境準備確認</text>
  <text x="275" y="1255" class="activity-label">コメント追加</text>

  <!-- Phase 4 Label (テスト実装) -->
  <rect x="50" y="1290" width="1050" height="30" fill="#eee" stroke="none"/>
  <text x="60" y="1310" class="phase-label">4. テスト実装フェーズ</text>

  <!-- 4. テスト実装フェーズ Activities -->
  <rect x="225" y="1340" width="100" height="60" class="activity"/>
  <text x="275" y="1370" class="activity-label">AI-Tにモード</text>
  <text x="275" y="1385" class="activity-label">切り替え指示</text>

  <rect x="525" y="1340" width="100" height="60" class="activity"/>
  <text x="575" y="1370" class="activity-label">コメント確認</text>
  <text x="575" y="1385" class="activity-label">プロジェクト把握</text>

  <rect x="525" y="1440" width="100" height="60" class="activity"/>
  <text x="575" y="1470" class="activity-label">テストコード</text>
  <text x="575" y="1485" class="activity-label">実装</text>

  <rect x="525" y="1540" width="100" height="60" class="activity"/>
  <text x="575" y="1570" class="activity-label">テスト実装完了</text>
  <text x="575" y="1585" class="activity-label">コメント追加</text>

  <!-- Connections between phases -->
  <path d="M 425,1140 L 275,1210" class="control-flow"/>
  <path d="M 275,1270 L 275,1340" class="control-flow"/>
  <path d="M 325,1370 L 525,1370" class="control-flow"/>
  <path d="M 575,1400 L 575,1440" class="control-flow"/>
  <path d="M 575,1500 L 575,1540" class="control-flow"/>
  <path d="M 525,1570 L 275,1630" class="control-flow"/>

  <!-- Phase 5 -->
  <rect x="50" y="1620" width="1050" height="30" fill="#eee" stroke="none"/>
  <text x="60" y="1640" class="phase-label">5. 機能実装フェーズ</text>

  <rect x="225" y="1670" width="100" height="60" class="activity"/>
  <text x="275" y="1700" class="activity-label">テスト実装確認</text>
  <text x="275" y="1715" class="activity-label">コメント追加</text>

  <!-- Phase 5 continues - from wf2.svg -->
  <rect x="225" y="1750" width="100" height="60" class="activity"/>
  <text x="275" y="1780" class="activity-label">AI-Dにモード</text>
  <text x="275" y="1795" class="activity-label">切り替え指示</text>

  <rect x="675" y="1750" width="100" height="60" class="activity"/>
  <text x="725" y="1780" class="activity-label">コメント確認</text>
  <text x="725" y="1795" class="activity-label">プロジェクト把握</text>

  <rect x="675" y="1850" width="100" height="60" class="activity"/>
  <text x="725" y="1880" class="activity-label">機能コード実装</text>
  <text x="725" y="1895" class="activity-label">(公式ドキュメント参照)</text>

  <rect x="675" y="1950" width="100" height="60" class="activity"/>
  <text x="725" y="1980" class="activity-label">機能実装完了</text>
  <text x="725" y="1995" class="activity-label">コメント追加</text>

  <!-- Connections Phase 5 continued -->
  <path d="M 275,1730 L 275,1750" class="control-flow"/>
  <path d="M 325,1780 L 675,1780" class="control-flow"/>
  <path d="M 725,1810 L 725,1850" class="control-flow"/>
  <path d="M 725,1910 L 725,1950" class="control-flow"/>
  <path d="M 675,1980 L 275,2020" class="control-flow"/>

  <!-- Phase 6 Label -->
  <rect x="50" y="2060" width="1050" height="30" fill="#eee" stroke="none"/>
  <text x="60" y="2080" class="phase-label">6. 品質保証・レビューフェーズ</text>

  <!-- 6. 品質保証・レビューフェーズ Activities -->
  <rect x="225" y="2110" width="100" height="60" class="activity"/>
  <text x="275" y="2140" class="activity-label">機能実装確認</text>
  <text x="275" y="2155" class="activity-label">コメント追加</text>

  <rect x="225" y="2210" width="100" height="60" class="activity"/>
  <text x="275" y="2240" class="activity-label">改善要求カウンター</text>
  <text x="275" y="2255" class="activity-label">初期化(0)</text>

  <rect x="225" y="2310" width="100" height="60" class="activity"/>
  <text x="275" y="2340" class="activity-label">AI-Qにモード</text>
  <text x="275" y="2355" class="activity-label">切り替え指示</text>

  <rect x="825" y="2310" width="100" height="60" class="activity"/>
  <text x="875" y="2340" class="activity-label">コードとテスト</text>
  <text x="875" y="2355" class="activity-label">品質検証</text>

  <!-- Quality Decision Diamond -->
  <polygon points="875,2410 925,2460 875,2510 825,2460" class="decision"/>
  <text x="875" y="2462" class="activity-label">改善が必要か?</text>

  <!-- No path - Quality is good -->
  <rect x="825" y="2550" width="100" height="60" class="activity"/>
  <text x="875" y="2580" class="activity-label">品質承認</text>
  <text x="875" y="2595" class="activity-label">コメント追加</text>

  <rect x="825" y="2650" width="100" height="60" class="activity"/>
  <text x="875" y="2680" class="activity-label">Pull Request</text>
  <text x="875" y="2695" class="activity-label">作成</text>

  <!-- Yes path - Improvement needed -->
  <rect x="525" y="2550" width="100" height="60" class="activity"/>
  <text x="575" y="2580" class="activity-label">改善要求</text>
  <text x="575" y="2595" class="activity-label">コメント追加</text>

  <rect x="225" y="2550" width="100" height="60" class="activity"/>
  <text x="275" y="2580" class="activity-label">改善要求確認</text>
  <text x="275" y="2595" class="activity-label">カウント更新</text>

  <!-- Improvement Counter Decision Diamond -->
  <polygon points="275,2650 325,2700 275,2750 225,2700" class="decision"/>
  <text x="275" y="2690" class="activity-label">カウント &lt; 3 ?</text>
  <text x="275" y="2705" class="activity-label">(3回未満)</text>

  <!-- AI-T/AI-D Improvement Implementation -->
  <rect x="525" y="2670" width="100" height="60" class="activity agent-t" opacity="0.8"/>
  <text x="575" y="2700" class="activity-label">改善実装(テスト)</text>

  <rect x="675" y="2670" width="100" height="60" class="activity agent-d" opacity="0.8"/>
  <text x="725" y="2700" class="activity-label">改善実装(機能)</text>

  <rect x="600" y="2770" width="100" height="60" class="activity"/>
  <text x="650" y="2800" class="activity-label">改善実装完了</text>
  <text x="650" y="2815" class="activity-label">コメント追加</text>

  <rect x="225" y="2790" width="100" height="60" class="activity"/>
  <text x="275" y="2820" class="activity-label">改善実装確認</text>
  <text x="275" y="2835" class="activity-label">コメント追加</text>

  <!-- Connections Phase 6 -->
  <path d="M 275,2020 L 275,2110" class="control-flow"/>
  <path d="M 275,2170 L 275,2210" class="control-flow"/>
  <path d="M 275,2270 L 275,2310" class="control-flow"/>
  <path d="M 325,2340 L 825,2340" class="control-flow"/>
  <path d="M 875,2370 L 875,2410" class="control-flow"/>
  <!-- Quality decision paths -->
  <path d="M 875,2510 L 875,2550" class="control-flow"/>
  <text x="890" y="2530" class="activity-label">いいえ</text>
  <path d="M 825,2460 L 575,2460 L 575,2550" class="control-flow"/>
  <text x="700" y="2450" class="activity-label">はい</text>
  <!-- Improvement flow -->
  <path d="M 525,2580 L 325,2580" class="control-flow"/>
  <path d="M 275,2610 L 275,2650" class="control-flow"/>
  <path d="M 325,2700 L 525,2700" class="control-flow"/>
  <text x="400" y="2690" class="activity-label">はい</text>
  <path d="M 525,2700 L 525,2730 L 600,2770" class="control-flow"/>
  <path d="M 675,2700 L 675,2730 L 650,2770" class="control-flow"/>
  <path d="M 600,2800 L 325,2800" class="control-flow"/>
  <!-- Loop back for re-verification -->
  <path d="M 275,2850 L 275,2880 L 1025,2880 L 1025,2340 L 925,2340" class="control-flow"/>
  <!-- Max count reached -->
  <path d="M 275,2750 L 275,2920 L 875,2920 L 875,2710" class="control-flow"/>
  <text x="275" y="2770" class="activity-label">いいえ</text>
  <text x="400" y="2910" class="activity-label">3回に達した場合は品質承認へ</text>

  <!-- Additional Phase 6 connections -->
  <path d="M 875,2610 L 875,2650" class="control-flow"/>
  <path d="M 825,2680 L 750,2680 L 750,2970" class="control-flow"/>

  <!-- Phase 7 Label -->
  <rect x="50" y="3000" width="1050" height="30" fill="#eee" stroke="none"/>
  <text x="60" y="3020" class="phase-label">7. 完了フェーズ</text>

  <!-- 7. 完了フェーズ Activities -->
  <rect x="225" y="3050" width="100" height="60" class="activity"/>
  <text x="275" y="3080" class="activity-label">Pull Request確認</text>
  <text x="275" y="3095" class="activity-label">マージ</text>

  <rect x="225" y="3150" width="100" height="60" class="activity"/>
  <text x="275" y="3180" class="activity-label">タスク完了</text>
  <text x="275" y="3195" class="activity-label">コメント追加</text>

  <rect x="225" y="3250" width="100" height="60" class="activity"/>
  <text x="275" y="3280" class="activity-label">イシューを</text>
  <text x="275" y="3295" class="activity-label">クローズに更新</text>

  <!-- AI-I part -->
  <rect x="975" y="3150" width="100" height="60" class="activity"/>
  <text x="1025" y="3180" class="activity-label">コミットメッセージ</text>
  <text x="1025" y="3195" class="activity-label">形式統一</text>

  <!-- End node -->
  <circle cx="275" cy="3360" r="15" class="start-end"/>
  <circle cx="275" cy="3360" r="10" fill="white"/>

  <!-- Connections Phase 7 -->
  <path d="M 750,2970 L 750,3080 L 325,3080" class="control-flow"/>
  <path d="M 275,3110 L 275,3150" class="control-flow"/>
  <path d="M 275,3210 L 275,3250" class="control-flow"/>
  <path d="M 275,3310 L 275,3345" class="control-flow"/>
  <path d="M 325,3180 L 975,3180" class="control-flow" stroke-dasharray="3,3"/>

  <!-- Note about commit message format -->
  <rect x="965" y="3240" width="120" height="100" class="note"/>
  <text x="1025" y="3260" class="activity-label">コミットメッセージ:</text>
  <text x="1025" y="3275" class="activity-label">feat|fix|docs|style|</text>
  <text x="1025" y="3290" class="activity-label">refactor|test|chore:</text>
  <text x="1025" y="3305" class="activity-label">[AI-I] タスク完了</text>
  <text x="1025" y="3320" class="activity-label">の概要...</text>
</svg>
